<?xml version="1.0" encoding="UTF-8"?>
<svg width="111px" height="130px" viewBox="0 0 111 130" version="1.1" xmlns="http://www.w3.org/2000/svg" xmlns:xlink="http://www.w3.org/1999/xlink">
    <!-- Generator: Sketch 41 (35326) - http://www.bohemiancoding.com/sketch -->
    <title>Group</title>
    <desc>Created with Sketch.</desc>
    <defs>
        <linearGradient x1="85.5107422%" y1="15.7529297%" x2="15.9423828%" y2="86.0273438%" id="linearGradient-1">
            <stop stop-color="#FEFEFE" offset="0%"></stop>
            <stop stop-color="#F5F5F5" offset="100%"></stop>
        </linearGradient>
    </defs>
    <g id="Page-1" stroke="none" stroke-width="1" fill="none" fill-rule="evenodd">
        <g id="A4" transform="translate(-4.000000, -1.000000)">
            <g id="Group" transform="translate(4.000000, 1.000000)">
                <path d="M11.016,105.324 C9.64799316,105.852003 8.49000474,106.367997 7.542,106.872 C6.59399526,107.376003 5.83200288,107.879997 5.256,108.384 C4.67999712,108.888003 4.26600126,109.391997 4.014,109.896 C3.76199874,110.400003 3.636,110.915997 3.636,111.444 C3.636,112.236004 3.89999736,112.883997 4.428,113.388 C4.95600264,113.892003 5.65199568,114.144 6.516,114.144 C7.14000312,114.144 7.7219973,113.988002 8.262,113.676 C8.8020027,113.363998 9.27599796,112.938003 9.684,112.398 C10.092002,111.857997 10.4159988,111.222004 10.656,110.49 C10.8960012,109.757996 11.016,108.984004 11.016,108.168 L11.016,105.324 Z M11.016,103.776 L11.016,102.3 C11.016,99.3719854 9.76801248,97.908 7.272,97.908 C6.86399796,97.908 6.51600144,97.9439996 6.228,98.016 C5.93999856,98.0880004 5.70000096,98.2079992 5.508,98.376 C5.31599904,98.5440008 5.14200078,98.7839984 4.986,99.096 C4.82999922,99.4080016 4.68000072,99.7919977 4.536,100.248 C4.27199868,100.944003 4.01400126,101.405999 3.762,101.634 C3.50999874,101.862001 3.1440024,101.976 2.664,101.976 C1.463994,101.976 0.864,101.376006 0.864,100.176 C0.864,99.0239942 1.47599388,98.1300032 2.7,97.494 C3.92400612,96.8579968 5.66398872,96.54 7.92,96.54 C10.320012,96.54 12.023995,96.9659957 13.032,97.818 C14.040005,98.6700043 14.544,100.11599 14.544,102.156 L14.544,110.22 C14.544,112.956014 15.0839946,114.324 16.164,114.324 C16.5000017,114.324 16.8239984,114.282 17.136,114.198 C17.4480016,114.114 17.7119989,113.892002 17.928,113.532 L18.432,114.396 C18.1439986,114.948003 17.6160038,115.409998 16.848,115.782 C16.0799962,116.154002 15.2760042,116.34 14.436,116.34 C13.3799947,116.34 12.5940026,116.004003 12.078,115.332 C11.5619974,114.659997 11.304,113.712006 11.304,112.488 L11.124,112.488 C10.4999969,113.664006 9.63600552,114.593997 8.532,115.278 C7.42799448,115.962003 6.20400672,116.304 4.86,116.304 C3.34799244,116.304 2.16000432,115.920004 1.296,115.152 C0.43199568,114.383996 2.22044605e-16,113.352006 0,112.056 C2.22044605e-16,111.479997 0.10199898,110.928003 0.306,110.4 C0.51000102,109.871997 0.83999772,109.368002 1.296,108.888 C1.75200228,108.407998 2.35199628,107.934002 3.096,107.466 C3.84000372,106.997998 4.7519946,106.524002 5.832,106.044 L11.016,103.776 Z M27.388,110.256 C27.388,111.240005 27.4119998,112.019997 27.46,112.596 C27.5080002,113.172003 27.633999,113.609999 27.838,113.91 C28.042001,114.210002 28.3359981,114.408 28.72,114.504 C29.1040019,114.6 29.6439965,114.672 30.34,114.72 L30.34,115.98 L20.764,115.98 L20.764,114.72 C21.4600035,114.696 22.011998,114.630001 22.42,114.522 C22.828002,114.413999 23.1399989,114.216001 23.356,113.928 C23.5720011,113.639999 23.7099997,113.226003 23.77,112.686 C23.8300003,112.145997 23.86,111.420005 23.86,110.508 L23.86,106.296 C23.86,104.663992 23.8420002,103.392005 23.806,102.48 C23.7699998,101.567995 23.650001,100.896002 23.446,100.464 C23.241999,100.031998 22.9240022,99.7740004 22.492,99.69 C22.0599978,99.6059996 21.4600038,99.564 20.692,99.564 L20.692,98.304 L26.992,96.936 L27.496,101.4 L27.64,101.4 C27.9520016,100.679996 28.3419977,100.020003 28.81,99.42 C29.2780023,98.819997 29.7879972,98.3100021 30.34,97.89 C30.8920028,97.4699979 31.467997,97.1400012 32.068,96.9 C32.668003,96.6599988 33.2799969,96.54 33.904,96.54 C34.6720038,96.54 35.2779978,96.7259981 35.722,97.098 C36.1660022,97.4700019 36.388,97.9679969 36.388,98.592 C36.388,99.1680029 36.2080018,99.6179984 35.848,99.942 C35.4879982,100.266002 34.9720034,100.428 34.3,100.428 C33.9159981,100.428 33.5920013,100.38 33.328,100.284 C33.0639987,100.188 32.830001,100.086001 32.626,99.978 C32.421999,99.8699995 32.2300009,99.7680005 32.05,99.672 C31.8699991,99.5759995 31.6720011,99.528 31.456,99.528 C30.8079968,99.528 30.1600032,99.9419959 29.512,100.77 C28.8639968,101.598004 28.3600018,102.647994 28,103.92 C27.807999,104.616003 27.6580005,105.401996 27.55,106.278 C27.4419995,107.154004 27.388,108.071995 27.388,109.032 L27.388,110.256 Z M45.56,110.256 C45.56,111.240005 45.5839998,112.019997 45.632,112.596 C45.6800002,113.172003 45.805999,113.609999 46.01,113.91 C46.214001,114.210002 46.5079981,114.408 46.892,114.504 C47.2760019,114.6 47.8159965,114.672 48.512,114.72 L48.512,115.98 L38.936,115.98 L38.936,114.72 C39.6320035,114.696 40.183998,114.630001 40.592,114.522 C41.000002,114.413999 41.3119989,114.216001 41.528,113.928 C41.7440011,113.639999 41.8819997,113.226003 41.942,112.686 C42.0020003,112.145997 42.032,111.420005 42.032,110.508 L42.032,106.296 C42.032,104.663992 42.0140002,103.392005 41.978,102.48 C41.9419998,101.567995 41.822001,100.896002 41.618,100.464 C41.413999,100.031998 41.0960022,99.7740004 40.664,99.69 C40.2319978,99.6059996 39.6320038,99.564 38.864,99.564 L38.864,98.304 L45.164,96.936 L45.668,101.4 L45.812,101.4 C46.1240016,100.679996 46.5139977,100.020003 46.982,99.42 C47.4500023,98.819997 47.9599972,98.3100021 48.512,97.89 C49.0640028,97.4699979 49.639997,97.1400012 50.24,96.9 C50.840003,96.6599988 51.4519969,96.54 52.076,96.54 C52.8440038,96.54 53.4499978,96.7259981 53.894,97.098 C54.3380022,97.4700019 54.56,97.9679969 54.56,98.592 C54.56,99.1680029 54.3800018,99.6179984 54.02,99.942 C53.6599982,100.266002 53.1440034,100.428 52.472,100.428 C52.0879981,100.428 51.7640013,100.38 51.5,100.284 C51.2359987,100.188 51.002001,100.086001 50.798,99.978 C50.593999,99.8699995 50.4020009,99.7680005 50.222,99.672 C50.0419991,99.5759995 49.8440011,99.528 49.628,99.528 C48.9799968,99.528 48.3320032,99.9419959 47.684,100.77 C47.0359968,101.598004 46.5320018,102.647994 46.172,103.92 C45.979999,104.616003 45.8300005,105.401996 45.722,106.278 C45.6139995,107.154004 45.56,108.071995 45.56,109.032 L45.56,110.256 Z M63.948,110.256 C63.948,111.192005 63.9899996,111.941997 64.074,112.506 C64.1580004,113.070003 64.3199988,113.513998 64.56,113.838 C64.8000012,114.162002 65.1359978,114.383999 65.568,114.504 C66.0000022,114.624001 66.5759964,114.696 67.296,114.72 L67.296,115.98 L56.964,115.98 L56.964,114.72 C57.6840036,114.696 58.2719977,114.618001 58.728,114.486 C59.1840023,114.353999 59.5379987,114.138002 59.79,113.838 C60.0420013,113.537999 60.2099996,113.118003 60.294,112.578 C60.3780004,112.037997 60.42,111.348004 60.42,110.508 L60.42,105.9 C60.42,104.507993 60.4020002,103.362004 60.366,102.462 C60.3299998,101.561996 60.2640005,100.944002 60.168,100.608 C60.0479994,100.055997 59.7720022,99.678001 59.34,99.474 C58.9079978,99.269999 58.092006,99.168 56.892,99.168 L56.892,97.908 L63.948,96.54 L63.948,110.256 Z M59.808,89.232 C59.808,88.6079969 60.0239978,88.0800022 60.456,87.648 C60.8880022,87.2159978 61.4159969,87 62.04,87 C62.6640031,87 63.1919978,87.2159978 63.624,87.648 C64.0560022,88.0800022 64.272,88.6079969 64.272,89.232 C64.272,89.8560031 64.0560022,90.3839978 63.624,90.816 C63.1919978,91.2480022 62.6640031,91.464 62.04,91.464 C61.4159969,91.464 60.8880022,91.2480022 60.456,90.816 C60.0239978,90.3839978 59.808,89.8560031 59.808,89.232 L59.808,89.232 Z M72.58,101.364 C72.2919986,100.643996 72.0340011,100.074002 71.806,99.654 C71.5779989,99.2339979 71.3320013,98.9160011 71.068,98.7 C70.8039987,98.4839989 70.5100016,98.3460003 70.186,98.286 C69.8619984,98.2259997 69.4720023,98.1840001 69.016,98.16 L69.016,96.9 L78.556,96.9 L78.556,98.16 C78.0759976,98.1840001 77.6800016,98.2079999 77.368,98.232 C77.0559984,98.2560001 76.8100009,98.3099996 76.63,98.394 C76.4499991,98.4780004 76.3240004,98.5979992 76.252,98.754 C76.1799996,98.9100008 76.144,99.1319986 76.144,99.42 C76.144,99.828002 76.1979995,100.211998 76.306,100.572 C76.4140005,100.932002 76.5279994,101.291998 76.648,101.652 L80.464,112.092 L80.608,112.092 L83.884,104.352 C84.3880025,103.151994 84.7479989,102.192004 84.964,101.472 C85.1800011,100.751996 85.288,100.116003 85.288,99.564 C85.288,99.0119972 85.1440014,98.640001 84.856,98.448 C84.5679986,98.255999 83.9440048,98.16 82.984,98.16 L82.984,96.9 L90.148,96.9 L90.148,98.16 C89.7639981,98.16 89.4160016,98.255999 89.104,98.448 C88.7919984,98.640001 88.5160012,98.8799986 88.276,99.168 C88.083999,99.4320013 87.886001,99.7859978 87.682,100.23 C87.477999,100.674002 87.274001,101.135998 87.07,101.616 C86.865999,102.096002 86.6800008,102.569998 86.512,103.038 C86.3439992,103.506002 86.1880007,103.883999 86.044,104.172 L80.752,116.376 L78.664,116.376 L72.58,101.364 Z M110.588,112.632 C108.54799,115.104012 106.016015,116.34 102.992,116.34 C101.575993,116.34 100.292006,116.106002 99.14,115.638 C97.9879942,115.169998 96.9980041,114.510004 96.17,113.658 C95.3419959,112.805996 94.7000023,111.786006 94.244,110.598 C93.7879977,109.409994 93.56,108.096007 93.56,106.656 C93.56,105.191993 93.7999976,103.836006 94.28,102.588 C94.7600024,101.339994 95.4379956,100.272004 96.314,99.384 C97.1900044,98.4959956 98.2339939,97.8000025 99.446,97.296 C100.658006,96.7919975 101.983993,96.54 103.424,96.54 C105.752012,96.54 107.551994,97.1699937 108.824,98.43 C110.096006,99.6900063 110.732,101.495988 110.732,103.848 C110.732,104.184002 110.666001,104.388 110.534,104.46 C110.401999,104.532 110.096002,104.568 109.616,104.568 L97.772,104.568 C97.7239998,104.760001 97.6880001,104.993999 97.664,105.27 C97.6399999,105.546001 97.628,105.851998 97.628,106.188 C97.628,107.436006 97.7779985,108.569995 98.078,109.59 C98.3780015,110.610005 98.8099972,111.479996 99.374,112.2 C99.9380028,112.920004 100.609996,113.477998 101.39,113.874 C102.170004,114.270002 103.039995,114.468 104,114.468 C105.008005,114.468 105.943996,114.246002 106.808,113.802 C107.672004,113.357998 108.559995,112.632005 109.472,111.624 L110.588,112.632 Z M104.648,102.912 C105.128002,102.912 105.511999,102.9 105.8,102.876 C106.088001,102.852 106.303999,102.804 106.448,102.732 C106.592001,102.66 106.688,102.558001 106.736,102.426 C106.784,102.293999 106.808,102.120001 106.808,101.904 C106.808,100.799994 106.454004,99.9180033 105.746,99.258 C105.037996,98.5979967 104.072006,98.268 102.848,98.268 C100.255987,98.268 98.6480031,99.8159845 98.024,102.912 L104.648,102.912 Z" id="arrive" fill="#333333"></path>
                <path d="M38.25,128.21 C38.25,128.463335 38.2633332,128.668333 38.29,128.825 C38.3166668,128.981667 38.3683329,129.101666 38.445,129.185 C38.5216671,129.268334 38.6316659,129.326666 38.775,129.36 C38.918334,129.393333 39.1066655,129.413333 39.34,129.42 L39.34,129.8 L36.1,129.8 L36.1,129.42 C36.3333345,129.413333 36.5216659,129.393333 36.665,129.36 C36.808334,129.326666 36.9199996,129.27 37,129.19 C37.0800004,129.11 37.1333332,128.996667 37.16,128.85 C37.1866668,128.703333 37.2,128.513334 37.2,128.28 L37.2,126.11 L33.15,126.11 L33.15,128.21 C33.15,128.463335 33.1633332,128.668333 33.19,128.825 C33.2166668,128.981667 33.268333,129.101666 33.345,129.185 C33.421667,129.268334 33.531666,129.326666 33.675,129.36 C33.8183341,129.393333 34.0066655,129.413333 34.24,129.42 L34.24,129.8 L31,129.8 L31,129.42 C31.2333345,129.413333 31.421666,129.393333 31.565,129.36 C31.7083341,129.326666 31.8199996,129.27 31.9,129.19 C31.9800004,129.11 32.0333332,128.996667 32.06,128.85 C32.0866668,128.703333 32.1,128.513334 32.1,128.28 L32.1,123.62 C32.1,123.386665 32.0883335,123.198334 32.065,123.055 C32.0416666,122.911666 31.9950004,122.798334 31.925,122.715 C31.8549996,122.631666 31.753334,122.575 31.62,122.545 C31.486666,122.515 31.3133344,122.493333 31.1,122.48 L31.1,122.1 L34.14,122.1 L34.14,122.48 C33.9266656,122.486667 33.7550007,122.506666 33.625,122.54 C33.4949994,122.573334 33.3950004,122.633333 33.325,122.72 C33.2549997,122.806667 33.2083334,122.926666 33.185,123.08 C33.1616665,123.233334 33.15,123.436665 33.15,123.69 L33.15,125.61 L37.2,125.61 L37.2,123.62 C37.2,123.386665 37.1883335,123.198334 37.165,123.055 C37.1416665,122.911666 37.0950004,122.798334 37.025,122.715 C36.9549997,122.631666 36.853334,122.575 36.72,122.545 C36.586666,122.515 36.4133344,122.493333 36.2,122.48 L36.2,122.1 L39.24,122.1 L39.24,122.48 C39.0266656,122.486667 38.8550006,122.506666 38.725,122.54 C38.5949993,122.573334 38.4950003,122.633333 38.425,122.72 C38.3549996,122.806667 38.3083335,122.926666 38.285,123.08 C38.2616666,123.233334 38.25,123.436665 38.25,123.69 L38.25,128.21 Z M49.0196296,122 C49.6062992,122 50.1529604,122.103332 50.6596296,122.31 C51.1662988,122.516668 51.6062944,122.799998 51.9796296,123.16 C52.3529648,123.520002 52.6462952,123.943331 52.8596296,124.43 C53.072964,124.916669 53.1796296,125.443331 53.1796296,126.01 C53.1796296,126.550003 53.0712974,127.056664 52.8546296,127.53 C52.6379619,128.003336 52.3429648,128.414998 51.9696296,128.765 C51.5962944,129.115002 51.1562988,129.391666 50.6496296,129.595 C50.1429604,129.798334 49.5996325,129.9 49.0196296,129.9 C48.4396267,129.9 47.8962988,129.798334 47.3896296,129.595 C46.8829604,129.391666 46.4429648,129.115002 46.0696296,128.765 C45.6962944,128.414998 45.4012974,128.003336 45.1846296,127.53 C44.9679619,127.056664 44.8596296,126.550003 44.8596296,126.01 C44.8596296,125.443331 44.9662952,124.916669 45.1796296,124.43 C45.392964,123.943331 45.6862944,123.520002 46.0596296,123.16 C46.4329648,122.799998 46.8729604,122.516668 47.3796296,122.31 C47.8862988,122.103332 48.43296,122 49.0196296,122 L49.0196296,122 Z M49.0196296,129.35 C49.4596318,129.35 49.8546279,129.273334 50.2046296,129.12 C50.5546314,128.966666 50.8546284,128.746668 51.1046296,128.46 C51.3546309,128.173332 51.5462956,127.825002 51.6796296,127.415 C51.8129636,127.004998 51.8796296,126.546669 51.8796296,126.04 C51.8796296,125.506664 51.8129636,125.025002 51.6796296,124.595 C51.5462956,124.164998 51.3562975,123.798335 51.1096296,123.495 C50.8629617,123.191665 50.5629647,122.958334 50.2096296,122.795 C49.8562945,122.631666 49.4596318,122.55 49.0196296,122.55 C48.5796274,122.55 48.1829647,122.631666 47.8296296,122.795 C47.4762945,122.958334 47.1762975,123.191665 46.9296296,123.495 C46.6829617,123.798335 46.4929636,124.164998 46.3596296,124.595 C46.2262956,125.025002 46.1596296,125.506664 46.1596296,126.04 C46.1596296,126.546669 46.2262956,127.004998 46.3596296,127.415 C46.4929636,127.825002 46.6829617,128.173332 46.9296296,128.46 C47.1762975,128.746668 47.4762945,128.966666 47.8296296,129.12 C48.1829647,129.273334 48.5796274,129.35 49.0196296,129.35 L49.0196296,129.35 Z M63.7492592,128.01 L66.3492592,122.1 L68.5892592,122.1 L68.5892592,122.48 C68.3759248,122.486667 68.2042599,122.513333 68.0742592,122.56 C67.9442586,122.606667 67.8442596,122.684999 67.7742592,122.795 C67.7042589,122.905001 67.6575927,123.056666 67.6342592,123.25 C67.6109258,123.443334 67.5992592,123.689999 67.5992592,123.99 L67.5992592,127.91 C67.5992592,128.243335 67.6125924,128.506666 67.6392592,128.7 C67.665926,128.893334 67.7175922,129.043333 67.7942592,129.15 C67.8709263,129.256667 67.9809252,129.326666 68.1242592,129.36 C68.2675933,129.393333 68.4559247,129.413333 68.6892592,129.42 L68.6892592,129.8 L65.4492592,129.8 L65.4492592,129.42 C65.6825937,129.413333 65.8709252,129.391667 66.0142592,129.355 C66.1575933,129.318333 66.2692588,129.25 66.3492592,129.15 C66.4292596,129.05 66.4825924,128.908334 66.5092592,128.725 C66.535926,128.541666 66.5492592,128.293335 66.5492592,127.98 L66.5492592,123.34 L66.4492592,123.34 L63.5292592,129.9 L63.3092592,129.9 L60.4392592,123.34 L60.3992592,123.34 L60.3992592,127.91 C60.3992592,128.243335 60.4125924,128.506666 60.4392592,128.7 C60.465926,128.893334 60.5175922,129.043333 60.5942592,129.15 C60.6709263,129.256667 60.7809252,129.326666 60.9242592,129.36 C61.0675933,129.393333 61.2559247,129.413333 61.4892592,129.42 L61.4892592,129.8 L58.6992592,129.8 L58.6992592,129.42 C58.9325937,129.413333 59.1209252,129.391667 59.2642592,129.355 C59.4075933,129.318333 59.5192588,129.25 59.5992592,129.15 C59.6792596,129.05 59.7325924,128.908334 59.7592592,128.725 C59.785926,128.541666 59.7992592,128.293335 59.7992592,127.98 L59.7992592,123.92 C59.7992592,123.639999 59.7875927,123.408334 59.7642592,123.225 C59.7409258,123.041666 59.6942596,122.896667 59.6242592,122.79 C59.5542589,122.683333 59.4525932,122.608334 59.3192592,122.565 C59.1859252,122.521666 59.0125936,122.493333 58.7992592,122.48 L58.7992592,122.1 L61.1892592,122.1 L63.7092592,128.01 L63.7492592,128.01 Z M76.3788888,125.57 C76.7388906,125.57 77.0405543,125.548334 77.2838888,125.505 C77.5272234,125.461666 77.7205548,125.393334 77.8638888,125.3 C78.0072229,125.206666 78.1105552,125.086667 78.1738888,124.94 C78.2372225,124.793333 78.2688888,124.620001 78.2688888,124.42 L78.6188888,124.42 L78.6188888,127.15 L78.2688888,127.15 C78.2688888,126.949999 78.2405558,126.776667 78.1838888,126.63 C78.1272219,126.483333 78.0272229,126.361667 77.8838888,126.265 C77.7405548,126.168333 77.5472234,126.095 77.3038888,126.045 C77.0605543,125.995 76.752224,125.97 76.3788888,125.97 L76.3788888,128.23 C76.3788888,128.450001 76.4055552,128.631666 76.4588888,128.775 C76.5122224,128.918334 76.6038882,129.035 76.7338888,129.125 C76.8638895,129.215 77.0355544,129.278333 77.2488888,129.315 C77.4622232,129.351667 77.7255539,129.37 78.0388888,129.37 C78.3922239,129.37 78.6922209,129.345 78.9388888,129.295 C79.1855567,129.245 79.3922213,129.160001 79.5588888,129.04 C79.7255563,128.919999 79.8588883,128.761668 79.9588888,128.565 C80.0588893,128.368332 80.1422218,128.123335 80.2088888,127.83 L80.5888888,127.83 L80.4388888,129.8 L74.2288888,129.8 L74.2288888,129.42 C74.4622233,129.413333 74.6505548,129.393333 74.7938888,129.36 C74.9372229,129.326666 75.0488884,129.27 75.1288888,129.19 C75.2088892,129.11 75.262222,128.996667 75.2888888,128.85 C75.3155556,128.703333 75.3288888,128.513334 75.3288888,128.28 L75.3288888,123.62 C75.3288888,123.386665 75.3172223,123.198334 75.2938888,123.055 C75.2705554,122.911666 75.2238892,122.798334 75.1538888,122.715 C75.0838885,122.631666 74.9822228,122.575 74.8488888,122.545 C74.7155548,122.515 74.5422232,122.493333 74.3288888,122.48 L74.3288888,122.1 L80.1088888,122.1 L80.1988888,123.86 L79.8488888,123.86 C79.8088886,123.593332 79.7438893,123.375001 79.6538888,123.205 C79.5638884,123.034999 79.4405563,122.9 79.2838888,122.8 C79.1272214,122.7 78.92889,122.63 78.6888888,122.59 C78.4488876,122.55 78.1588905,122.53 77.8188888,122.53 L76.5488888,122.53 C76.4355549,122.53 76.3788888,122.586666 76.3788888,122.7 L76.3788888,125.57 Z" id="HOME" fill="#333333"></path>
                <path d="M55.1517065,81 C77.4653614,81 96,59.4337335 96,37.0662012 C96,14.6986688 77.4653614,0 55.1517065,0 C32.8380515,0 16,22.8698602 16,45.2373926 C16,67.6049249 32.8380515,81 55.1517065,81 Z" id="Mask" fill="url(#linearGradient-1)"></path>
            </g>
        </g>
    </g>
</svg>